<!--?xml version="1.0" encoding="utf-8"?-->
<!-- Generator: Adobe Illustrator 18.1.1, SVG Export Plug-In . SVG Version: 6.00 Build 0)  -->

<svg version="1.1" id="_x32_" xmlns="http://www.w3.org/2000/svg" xmlns:xlink="http://www.w3.org/1999/xlink" x="0px" y="0px" viewBox="0 0 512 512" style="width: 16px; height: 16px; opacity: 1;" xml:space="preserve">
<style type="text/css">
	.st0{fill:#4B4B4B;}
</style>
<g>
	<path class="st0" d="M416.929,43.928H303.306C301.473,19.796,281.539,0.084,256.002,0c-25.554,0.084-45.501,19.796-47.325,43.928
		H95.071c-23.666,0-43.021,18.629-43.021,41.394v32.16c0,5.696,4.839,10.351,10.753,10.351h0.701l24.79,342.865
		c1.631,22.715,22.32,41.302,46,41.302h243.404c23.658,0,44.364-18.587,46.02-41.302l24.766-342.865h0.692
		c5.918,0,10.774-4.655,10.774-10.351v-32.16C459.95,62.557,440.578,43.928,416.929,43.928z M275.076,449.997V415.74
		c-87.34,0.62-123.571-57.273-124.867-96.512c26.518,47.945,116.458,36.739,124.867,36.739v-37.368l86.706,65.694L275.076,449.997z
		 M236.902,278.756v37.352l-86.693-65.695l86.693-65.694v34.256c87.348-0.637,123.572,57.281,124.88,96.512
		C335.243,267.525,245.32,278.756,236.902,278.756z" style="fill: rgb(45, 45, 45);"></path>
</g>
</svg>
